<?xml version="1.0" encoding="utf-8"?>
<!-- Generator: Adobe Illustrator 16.0.1, SVG Export Plug-In . SVG Version: 6.00 Build 0)  -->
<!DOCTYPE svg PUBLIC "-//W3C//DTD SVG 1.1//EN" "http://www.w3.org/Graphics/SVG/1.1/DTD/svg11.dtd">
<svg version="1.1" id="Layer_1" xmlns="http://www.w3.org/2000/svg" xmlns:xlink="http://www.w3.org/1999/xlink" x="0px" y="0px"
	 width="83px" height="70px" viewBox="0 0 83 70" enable-background="new 0 0 83 70" xml:space="preserve">
<g>
	<path fill="#ACD8F0" d="M38.566,35.847c-1.655,0-2.088,1.548-2.088,4.571s0.433,4.607,2.052,4.607c1.656,0,2.052-1.367,2.052-4.463
		S40.187,35.847,38.566,35.847z"/>
	<path fill="#ACD8F0" d="M23.484,28.972c0-3.096-0.396-4.716-2.052-4.716c-1.619,0-2.052,1.512-2.052,4.571
		c0,3.024,0.433,4.607,2.052,4.607C23.053,33.435,23.484,32.031,23.484,28.972z"/>
	<path fill="#ACD8F0" d="M30,5C13.431,5,0,18.432,0,35s13.431,30,30,30c16.568,0,30-13.432,30-30S46.568,5,30,5z M14.81,28.972
		c0-4.968,3.239-7.235,6.623-7.235c3.312,0,6.659,2.196,6.659,7.056c0,4.895-3.203,7.163-6.695,7.163
		C17.905,35.955,14.81,33.759,14.81,28.972z M22.98,48.553h-3.348l17.062-27.104h3.384L22.98,48.553z M38.53,47.545
		c-3.491,0-6.623-2.195-6.623-6.982c0-4.968,3.275-7.235,6.659-7.235c3.312,0,6.623,2.195,6.623,7.055
		C45.189,45.277,41.986,47.545,38.53,47.545z"/>
</g>
</svg>
