<?xml version="1.0" encoding="utf-8"?>
<!-- Generator: Adobe Illustrator 16.0.1, SVG Export Plug-In . SVG Version: 6.00 Build 0)  -->
<!DOCTYPE svg PUBLIC "-//W3C//DTD SVG 1.1//EN" "http://www.w3.org/Graphics/SVG/1.1/DTD/svg11.dtd">
<svg version="1.1" id="Layer_1" xmlns="http://www.w3.org/2000/svg" xmlns:xlink="http://www.w3.org/1999/xlink" x="0px" y="0px"
	 width="83px" height="70px" viewBox="0 0 83 70" enable-background="new 0 0 83 70" xml:space="preserve">
<g>
	<path fill="#ACD8F0" d="M57.283,16.142c-13.807,0-25,11.191-25,25c0,13.805,11.193,24.998,25,24.998s25-11.193,25-24.998
		C82.283,27.333,71.09,16.142,57.283,16.142z M73.191,43.413L57.34,44.892l-2.897-2.898l1.704-21.307h2.217l1.646,19.658
		l13.182,0.797V43.413z"/>
	<path fill="#ACD8F0" d="M8.506,49.827l2.309-2.32V6.64H69.22v9.257c0.958,0.449,1.886,0.95,2.78,1.501V3.86H9.39L8.034,5.216
		v41.162l-2.595,2.596l0.002,0.031l-2.648-2.648V13.304H5.86v-2.779H2.793v-0.013l-2.317,0.013H0v2.779h0.012v34.182L0,47.495
		l5.112,5.111h26.659c-0.402-0.902-0.76-1.829-1.066-2.779H8.506z"/>
	<path fill="#ACD8F0" d="M33.283,26.974c0.355-0.599,0.736-1.182,1.135-1.751H15.595v1.751H33.283z"/>
	<path fill="#ACD8F0" d="M15.595,30.974h15.724c0.234-0.593,0.484-1.179,0.758-1.751H15.595V30.974z"/>
	<path fill="#ACD8F0" d="M30.535,33.223h-14.94v1.751h14.479C30.21,34.383,30.361,33.799,30.535,33.223z"/>
</g>
</svg>
