<?xml version="1.0" encoding="utf-8"?>
<!-- Generator: Adobe Illustrator 16.0.1, SVG Export Plug-In . SVG Version: 6.00 Build 0)  -->
<!DOCTYPE svg PUBLIC "-//W3C//DTD SVG 1.1//EN" "http://www.w3.org/Graphics/SVG/1.1/DTD/svg11.dtd">
<svg version="1.1" id="Layer_1" xmlns="http://www.w3.org/2000/svg" xmlns:xlink="http://www.w3.org/1999/xlink" x="0px" y="0px"
	 width="83px" height="70px" viewBox="0 0 83 70" enable-background="new 0 0 83 70" xml:space="preserve">
<g>
	<rect x="27.783" y="28.566" width="4.428" height="31.371"/>
	<polygon points="5.453,55.846 9.543,59.938 24.379,59.938 24.379,28.566 5.453,28.566 	"/>
	<path d="M58.635,20.707H40.939c1.473-1.518,2.539-3.273,2.998-4.965c0.523-1.916,0.232-3.553-0.822-4.605
		c-0.703-0.703-1.686-1.074-2.846-1.074c-2.18,0-4.752,1.271-6.881,3.398c-2.07,2.072-3.25,4.479-3.381,6.51
		c-0.027-0.443-0.107-0.906-0.238-1.389c-0.477-1.752-1.596-3.57-3.146-5.121c-2.127-2.127-4.699-3.398-6.879-3.398
		c-1.162,0-2.146,0.371-2.848,1.074c-2.045,2.045-1.08,6.219,2.176,9.57H1.363L0,22.07v3.41l1.363,1.363h23.016v-2.979h3.404v2.979
		h4.428v-2.979h3.404v2.979h23.02L60,25.48v-3.41L58.635,20.707z M28.293,20.707h-6.67c-0.41-0.316-0.816-0.664-1.197-1.047
		c-2.885-2.885-3.533-6.113-2.328-7.32c0.383-0.381,0.936-0.574,1.646-0.574c1.711,0,3.887,1.111,5.674,2.9
		c1.346,1.344,2.309,2.895,2.709,4.365C28.244,19.459,28.361,20.09,28.293,20.707z M30.006,20.707L30.006,20.707
		c0,0,0-0.004,0-0.006C30.006,20.703,30.006,20.705,30.006,20.707z M38.389,20.707h-6.674c-0.176-1.555,0.73-3.893,2.877-6.043
		c1.791-1.787,3.965-2.898,5.678-2.898c0.709,0,1.262,0.193,1.645,0.574c0.811,0.814,0.588,2.201,0.381,2.953
		c-0.398,1.471-1.359,3.02-2.707,4.367C39.205,20.043,38.799,20.391,38.389,20.707z"/>
	<polygon points="35.615,59.938 50.453,59.938 54.541,55.846 54.541,28.566 35.615,28.566 	"/>
</g>
</svg>
