<?xml version="1.0" encoding="utf-8"?>
<!-- Generator: Adobe Illustrator 16.0.1, SVG Export Plug-In . SVG Version: 6.00 Build 0)  -->
<!DOCTYPE svg PUBLIC "-//W3C//DTD SVG 1.1//EN" "http://www.w3.org/Graphics/SVG/1.1/DTD/svg11.dtd">
<svg version="1.1" id="Layer_1" xmlns="http://www.w3.org/2000/svg" xmlns:xlink="http://www.w3.org/1999/xlink" x="0px" y="0px"
	 width="83px" height="70px" viewBox="0 0 83 70" enable-background="new 0 0 83 70" xml:space="preserve">
<g>
	<path d="M77.172,8.607H33.309l-2.07,2.068V67.73l2.068,2.068h43.864l2.067-2.068V10.676L77.172,8.607z
		 M55.239,67.744c-1.311,0-2.374-1.063-2.374-2.375c0-1.311,1.063-2.373,2.374-2.373s2.374,1.062,2.374,2.373
		C57.613,66.681,56.55,67.744,55.239,67.744z M76.371,60.965H34.107V11.864l0.389-0.39h41.487l0.388,0.389V60.965z"/>
	<rect x="36.594" y="21.564" width="30" height="1.751"/>
	<rect x="36.594" y="25.564" width="30" height="1.751"/>
	<rect x="36.594" y="29.564" width="30" height="1.751"/>
	<rect x="15.594" y="21.564" width="13" height="1.751"/>
	<rect x="15.594" y="25.564" width="13" height="1.751"/>
	<rect x="15.594" y="29.564" width="13" height="1.751"/>
	<polygon points="10.814,43.85 10.814,2.982 69.219,2.982 69.219,6.607 72,6.607 72,0.201 9.389,0.201 8.034,1.557
		8.034,42.721 5.439,45.315 5.441,45.347 2.792,42.697 2.792,9.646 5.86,9.646 5.86,6.865 2.792,6.865 2.792,6.854 0.475,6.865
		0,6.865 0,9.646 0.012,9.646 0.012,43.826 0,43.838 5.112,48.949 29.303,48.949 29.303,46.169 8.505,46.169 	"/>
</g>
</svg>
