<?xml version="1.0" encoding="utf-8"?>
<!-- Generator: Adobe Illustrator 16.0.1, SVG Export Plug-In . SVG Version: 6.00 Build 0)  -->
<!DOCTYPE svg PUBLIC "-//W3C//DTD SVG 1.1//EN" "http://www.w3.org/Graphics/SVG/1.1/DTD/svg11.dtd">
<svg version="1.1" id="Layer_1" xmlns="http://www.w3.org/2000/svg" xmlns:xlink="http://www.w3.org/1999/xlink" x="0px" y="0px"
	 width="83px" height="70px" viewBox="0 0 83 70" enable-background="new 0 0 83 70" xml:space="preserve">
<g>
	<polygon points="79.251,31.128 66.752,43.629 66.752,49.879 79.251,62.381 82.376,62.381 82.376,31.128 	"/>
	<path d="M50,40.916V16.555l-3.408-3.408H35.228l-5.682-5.683h-9.091l-5.682,5.683H3.409L0,16.555v24.449
		l3.409,3.391h43.183L50,40.916z M25,38.146c-5.648,0-10.227-4.58-10.227-10.227c0-5.649,4.578-10.228,10.227-10.228
		c5.646,0,10.228,4.578,10.228,10.228C35.228,33.567,30.646,38.146,25,38.146z"/>
	<polygon points="52,40.916 52,41.732 51.429,42.316 48.021,45.795 47.433,46.395 46.592,46.395 32.376,46.395
		32.376,57.99 36.922,62.535 63.627,62.535 63.627,30.717 52,30.717 	"/>
</g>
</svg>
