<?xml version="1.0" encoding="utf-8"?>
<!-- Generator: Adobe Illustrator 16.0.1, SVG Export Plug-In . SVG Version: 6.00 Build 0)  -->
<!DOCTYPE svg PUBLIC "-//W3C//DTD SVG 1.1//EN" "http://www.w3.org/Graphics/SVG/1.1/DTD/svg11.dtd">
<svg version="1.1" id="Layer_1" xmlns="http://www.w3.org/2000/svg" xmlns:xlink="http://www.w3.org/1999/xlink" x="0px" y="0px"
	 width="83px" height="70px" viewBox="0 0 83 70" enable-background="new 0 0 83 70" xml:space="preserve">
<g>
	<path d="M76.622,44.6l-1.577-1.533c-3.521-1.166-7.286-1.801-11.202-1.801c-2.816,0-5.554,0.332-8.182,0.951
		l3.923,16.121l-1.563,1.951h20.533L80,58.482L76.622,44.6z"/>
	<path d="M63.843,37.896c3.326,0,7.299-3.732,7.299-8.337c0-4.604-2.693-7.295-7.299-7.295s-7.296,2.691-7.296,7.295
		C56.547,34.165,60.849,37.896,63.843,37.896z"/>
	<path d="M10.339,45.959c1.917,0,4.67-2.389,4.67-5.336s-1.722-4.669-4.67-4.669s-4.67,1.722-4.67,4.669
		S8.21,45.959,10.339,45.959z"/>
	<path d="M36.063,30.507c4.42,0,9.705-4.966,9.705-11.093c0-6.125-3.581-9.704-9.705-9.704
		c-6.128,0-9.709,3.579-9.709,9.704C26.354,25.542,32.075,30.507,36.063,30.507z"/>
	<path d="M50.961,37.379c-4.685-1.55-9.69-2.394-14.897-2.394c-5.237,0-10.27,0.851-14.977,2.417l-2.115,2.068
		l-4.417,18.461l1.886,2.357h39.187l1.923-2.402L53.058,39.42L50.961,37.379z"/>
	<path d="M14.827,48.592c-1.455-0.293-2.947-0.477-4.488-0.477c-2.506,0-4.917,0.406-7.169,1.15l-1.011,0.982
		L0,59.133l0.923,1.156h13.049l-1.528-1.9L14.827,48.592z"/>
</g>
</svg>
