<svg id="svg-sprite" width="0" height="0"><symbol viewBox="0 0 16 16" id="icon-arrow-down"><title>arrow-down</title><path d="M15.894 5.902L8.75 11.618 8 12.23l-.75-.612L.107 5.902l.34-.476L8 9.713l7.552-4.287.34.476z"/></symbol><symbol viewBox="0 0 20 18" id="icon-arrow-left"><title>arrow-left</title><path d="M0 8.56L9.084.054l.86.81-6.542 7.31H20v1.653H3.402l6.542 7.312-.86.81L0 9.402V8.56z"/></symbol><symbol viewBox="0 0 20 18" id="icon-arrow-right"><title>arrow-right</title><path d="M20 9.352l-9.084 8.543-.86-.81 6.542-7.31H0V8.12h16.598L10.056.81l.86-.81L20 8.508v.844z"/></symbol><symbol viewBox="0 0 20 20" id="icon-arrow-up"><title>Layer 1</title><path d="M.11 13.267L9.06 6.105 10 5.338l.938.767 8.953 7.162-.425.597L10 8.492.538 13.864l-.426-.597z" stroke="null"/></symbol><symbol viewBox="0 0 16 16" id="icon-email"><title>email</title><path d="M13.446 6.42l-.35-.352-5.01 2.372L3.08 6.068l-.263.35 5.27 4.305 5.36-4.304zM14.5 2.29H1.412L.094 4.486v8.17L1.5 13.708h13.087l1.318-1.055v-8.17L14.5 2.29zm-.44 9.487H1.94V4.223h12.12v7.554z"/></symbol><symbol viewBox="0 0 20 20" id="icon-secure"><title>secure</title><path d="M15.8 8H14V5.6C14 2.703 12.665 1 10 1S6 2.703 6 5.6V8H4c-.553 0-1 .646-1 1.2V17c0 .55.428 1.14.95 1.307l1.198.387C5.672 18.86 6.55 19 7.1 19h5.8c.55 0 1.428-.14 1.95-.307l1.197-.387C16.57 18.14 17 17.55 17 17V9.2c0-.554-.648-1.2-1.2-1.2zM12 8H8V5.2C8 3.753 8.797 3 10 3s2 .754 2 2.2V8z"/></symbol></svg>