<svg id="svg-sprite" width="0" height="0"><symbol viewBox="0 0 16 16" id="icon-arrow-down"><title>arrow-down</title><path d="M15.894 5.902L8.75 11.618 8 12.23l-.75-.612L.107 5.902l.34-.476L8 9.713l7.552-4.287.34.476z"/></symbol><symbol viewBox="0 0 20 18" id="icon-arrow-left"><title>arrow-left</title><path d="M0 8.56L9.084.054l.86.81-6.542 7.31H20v1.653H3.402l6.542 7.312-.86.81L0 9.402V8.56z"/></symbol><symbol viewBox="0 0 20 18" id="icon-arrow-right"><title>arrow-right</title><path d="M20 9.352l-9.084 8.543-.86-.81 6.542-7.31H0V8.12h16.598L10.056.81l.86-.81L20 8.508v.844z"/></symbol><symbol viewBox="0 0 20 20" id="icon-arrow-up"><title>Layer 1</title><path d="M.11 13.267L9.06 6.105 10 5.338l.938.767 8.953 7.162-.425.597L10 8.492.538 13.864l-.426-.597z" stroke="null"/></symbol><symbol viewBox="0 0 16 16" id="icon-email"><title>email</title><path d="M13.446 6.42l-.35-.352-5.01 2.372L3.08 6.068l-.263.35 5.27 4.305 5.36-4.304zM14.5 2.29H1.412L.094 4.486v8.17L1.5 13.708h13.087l1.318-1.055v-8.17L14.5 2.29zm-.44 9.487H1.94V4.223h12.12v7.554z"/></symbol><symbol viewBox="0 0 36 36" id="icon-g-mark"><title>g-mark</title><path d="M-169.248 14.897l-.186-.102c-2.746-1.512-4.56-4.2-4.56-7.818 0-3.1 1.35-5.54 3.65-7.16C-177.22 2.98-182 9.93-182 18c0 5.474 2.2 10.433 5.764 14.045l-.013-.293c0-3.57 3.48-4.887 6.57-5.523v-.008c-2.94-.636-4.36-2.737-4.36-4.886 0-2.883 3.228-5.37 4.797-6.444zm7.222-1.857c1.964 0 3.65-.586 3.65-6.062 0-5.475-1.637-6.306-3.65-6.306-1.964 0-3.6.733-3.6 6.306s1.636 6.062 3.6 6.062zM-142 18c0-8.242-4.985-15.318-12.104-18.38 2.38 1.55 3.826 3.93 3.937 6.978.038.234.06.46.06.673 0 5.97-4.854 9.14-11.918 9.14-1.816 0-3.043-.1-4.516-.537-.69.488-1.23 1.27-1.23 2.005 0 .98.88 1.763 1.96 1.763h9.816c6.08 0 9.07 2.49 9.07 7.863 0 1.79-.356 3.4-1.094 4.792C-144.304 28.662-142 23.6-142 18zm-16.147 9.86h-7.443c-2.5 0-3.24 1.848-3.24 3.218 0 1.98 1.783 3.806 6.98 3.806 5.91 0 7.515-1.664 7.515-3.83 0-1.888-1.423-3.194-3.812-3.194zM11.478 15.133l-.168-.092c-2.47-1.36-4.104-3.78-4.104-7.03 0-2.79 1.215-4.986 3.285-6.444C4.3 4.408 0 10.666 0 17.926c0 4.926 1.98 9.39 5.188 12.64l-.012-.264c0-3.21 3.133-4.397 5.91-4.97-2.644-.573-3.924-2.464-3.924-4.398 0-2.595 2.902-4.834 4.316-5.8zm6.5-1.673c1.77 0 3.283-.527 3.283-5.455 0-4.927-1.47-5.675-3.28-5.675-1.765 0-3.24.66-3.24 5.675 0 5.016 1.475 5.456 3.24 5.456zM36 17.924c0-7.417-4.487-13.786-10.894-16.542C27.25 2.78 28.55 4.92 28.65 7.662c.032.212.053.416.053.607 0 5.362-4.368 8.22-10.727 8.22-1.634 0-2.74-.09-4.064-.488-.618.44-1.104 1.144-1.104 1.805 0 .88.794 1.586 1.767 1.586h8.834c5.47 0 8.16 2.24 8.16 7.075 0 1.614-.32 3.062-.986 4.315C33.924 27.52 36 22.965 36 17.925zM21.468 26.8h-6.7c-2.25 0-2.916 1.662-2.916 2.895 0 1.78 1.605 3.425 6.283 3.425 5.32 0 6.762-1.497 6.762-3.447 0-1.7-1.28-2.874-3.43-2.874zm-130.716-11.903l-.186-.102c-2.746-1.512-4.56-4.2-4.56-7.818 0-3.1 1.35-5.54 3.65-7.16C-117.22 2.98-122 9.93-122 18c0 5.474 2.2 10.433 5.764 14.045l-.013-.293c0-3.57 3.48-4.887 6.57-5.523v-.008c-2.94-.636-4.36-2.737-4.36-4.886 0-2.883 3.228-5.37 4.797-6.444zm7.222-1.857c1.964 0 3.65-.586 3.65-6.062 0-5.475-1.637-6.306-3.65-6.306-1.964 0-3.6.733-3.6 6.306s1.636 6.062 3.6 6.062zM-82 18c0-8.243-4.985-15.32-12.104-18.38 2.38 1.55 3.826 3.93 3.937 6.978.038.234.06.46.06.673 0 5.97-4.854 9.14-11.918 9.14-1.816 0-3.043-.1-4.516-.537-.69.488-1.23 1.27-1.23 2.005 0 .98.88 1.763 1.96 1.763h9.816c6.08 0 9.07 2.49 9.07 7.863 0 1.79-.356 3.4-1.094 4.792C-84.304 28.662-82 23.6-82 18zm-16.147 9.86h-7.443c-2.5 0-3.24 1.848-3.24 3.218 0 1.98 1.783 3.806 6.98 3.806 5.91 0 7.515-1.664 7.515-3.83 0-1.888-1.423-3.194-3.812-3.194zm48.9-12.963l-.187-.102c-2.746-1.512-4.56-4.2-4.56-7.818 0-3.1 1.35-5.54 3.65-7.16C-57.22 2.98-62 9.93-62 18c0 5.474 2.2 10.433 5.764 14.045l-.013-.293c0-3.57 3.48-4.887 6.57-5.523v-.008c-2.94-.636-4.36-2.737-4.36-4.886 0-2.883 3.228-5.37 4.797-6.444zm7.22-1.857c1.965 0 3.65-.586 3.65-6.062 0-5.475-1.636-6.306-3.65-6.306-1.963 0-3.6.733-3.6 6.306s1.637 6.062 3.6 6.062zM-22 18c0-8.243-4.985-15.32-12.104-18.38 2.38 1.55 3.826 3.93 3.937 6.978.038.234.06.46.06.673 0 5.97-4.854 9.14-11.918 9.14-1.816 0-3.043-.1-4.516-.537-.69.488-1.23 1.27-1.23 2.005 0 .98.88 1.763 1.96 1.763h9.816c6.08 0 9.07 2.49 9.07 7.863 0 1.79-.356 3.4-1.094 4.792C-24.304 28.662-22 23.6-22 18zm-16.147 9.86h-7.443c-2.5 0-3.24 1.848-3.24 3.218 0 1.98 1.783 3.806 6.98 3.806 5.91 0 7.515-1.664 7.515-3.83 0-1.888-1.423-3.194-3.812-3.194z"/></symbol><symbol viewBox="0 0 20 20" id="icon-secure"><title>secure</title><path d="M15.8 8H14V5.6C14 2.703 12.665 1 10 1S6 2.703 6 5.6V8H4c-.553 0-1 .646-1 1.2V17c0 .55.428 1.14.95 1.307l1.198.387C5.672 18.86 6.55 19 7.1 19h5.8c.55 0 1.428-.14 1.95-.307l1.197-.387C16.57 18.14 17 17.55 17 17V9.2c0-.554-.648-1.2-1.2-1.2zM12 8H8V5.2C8 3.753 8.797 3 10 3s2 .754 2 2.2V8z"/></symbol><symbol viewBox="0 0 20 20" id="icon-user"><title>user</title><path stroke="null" d="M10 8.3c1.55 0 3.4-1.75 3.4-3.9S12.15 1 10 1 6.6 2.25 6.6 4.4s2 3.9 3.4 3.9zm5.86 3.4l-.86-.82c-1.67-.58-3.14-.88-5-.88-1.87 0-3.32.3-5 .86l-.86.85L2 18.16l.86.84h14.28l.86-.86-2.14-6.42v-.02z"/></symbol></svg>