<svg id="svg-sprite" width="0" height="0"><symbol viewBox="0 0 16 16" id="icon-arrow-down"><title>arrow-down</title><path d="M15.894 5.902L8.75 11.618 8 12.23l-.75-.612L.107 5.902l.34-.476L8 9.713l7.552-4.287.34.476z"/></symbol><symbol viewBox="0 0 20 18" id="icon-arrow-left"><title>arrow-left</title><path d="M0 8.56L9.084.054l.86.81-6.542 7.31H20v1.653H3.402l6.542 7.312-.86.81L0 9.402V8.56z"/></symbol><symbol viewBox="0 0 20 18" id="icon-arrow-right"><title>arrow-right</title><path d="M20 9.352l-9.084 8.543-.86-.81 6.542-7.31H0V8.12h16.598L10.056.81l.86-.81L20 8.508v.844z"/></symbol><symbol viewBox="0 0 20 20" id="icon-arrow-up"><title>Layer 1</title><path d="M.11 13.267L9.06 6.105 10 5.338l.938.767 8.953 7.162-.425.597L10 8.492.538 13.864l-.426-.597z" stroke="null"/></symbol><symbol viewBox="0 0 83 70" id="icon-discounts"><title>discounts</title><path d="M38.566 35.847c-1.655 0-2.088 1.548-2.088 4.57s.433 4.608 2.052 4.608c1.656 0 2.052-1.367 2.052-4.463s-.395-4.715-2.016-4.715zM23.484 28.972c0-3.096-.396-4.716-2.052-4.716-1.62 0-2.052 1.512-2.052 4.57 0 3.025.433 4.608 2.052 4.608 1.62 0 2.052-1.403 2.052-4.462z"/><path d="M30 5C13.43 5 0 18.432 0 35s13.43 30 30 30c16.568 0 30-13.432 30-30S46.568 5 30 5zM14.81 28.972c0-4.968 3.24-7.235 6.623-7.235 3.312 0 6.66 2.196 6.66 7.056 0 4.895-3.204 7.163-6.696 7.163-3.492 0-6.587-2.197-6.587-6.984zm8.17 19.58h-3.348L36.694 21.45h3.384L22.98 48.552zm15.55-1.007c-3.49 0-6.623-2.195-6.623-6.982 0-4.968 3.275-7.235 6.66-7.235 3.31 0 6.622 2.195 6.622 7.055 0 4.894-3.204 7.162-6.66 7.162z"/></symbol><symbol viewBox="0 0 16 16" id="icon-email"><title>email</title><path d="M13.446 6.42l-.35-.352-5.01 2.372L3.08 6.068l-.263.35 5.27 4.305 5.36-4.304zM14.5 2.29H1.412L.094 4.486v8.17L1.5 13.708h13.087l1.318-1.055v-8.17L14.5 2.29zm-.44 9.487H1.94V4.223h12.12v7.554z"/></symbol><symbol viewBox="0 0 83 70" id="icon-every_day"><title>every_day</title><path d="M57.283 16.142c-13.807 0-25 11.19-25 25 0 13.805 11.193 24.998 25 24.998s25-11.193 25-24.998c0-13.81-11.193-25-25-25zm15.908 27.27l-15.85 1.48-2.897-2.898 1.704-21.307h2.217l1.646 19.658 13.182.797v2.27z"/><path d="M8.506 49.827l2.31-2.32V6.64H69.22v9.257c.958.45 1.886.95 2.78 1.5V3.86H9.39L8.034 5.216v41.162L5.44 48.974v.03l-2.647-2.647V13.304H5.86v-2.78H2.793v-.012l-2.317.013H0v2.78h.012v34.18l-.012.01 5.112 5.11h26.66c-.403-.9-.76-1.828-1.067-2.778h-22.2z"/><path d="M33.283 26.974c.355-.6.736-1.182 1.135-1.75H15.595v1.75h17.688zM15.595 30.974H31.32c.233-.593.483-1.18.757-1.75H15.595v1.75zM30.535 33.223h-14.94v1.75h14.48c.135-.59.286-1.174.46-1.75z"/></symbol><symbol viewBox="0 0 36 36" id="icon-g-mark"><title>g-mark</title><path d="M-169.248 14.897l-.186-.102c-2.746-1.512-4.56-4.2-4.56-7.818 0-3.1 1.35-5.54 3.65-7.16C-177.22 2.98-182 9.93-182 18c0 5.474 2.2 10.433 5.764 14.045l-.013-.293c0-3.57 3.48-4.887 6.57-5.523v-.008c-2.94-.636-4.36-2.737-4.36-4.886 0-2.883 3.228-5.37 4.797-6.444zm7.222-1.857c1.964 0 3.65-.586 3.65-6.062 0-5.475-1.637-6.306-3.65-6.306-1.964 0-3.6.733-3.6 6.306s1.636 6.062 3.6 6.062zM-142 18c0-8.242-4.985-15.318-12.104-18.38 2.38 1.55 3.826 3.93 3.937 6.978.038.234.06.46.06.673 0 5.97-4.854 9.14-11.918 9.14-1.816 0-3.043-.1-4.516-.537-.69.488-1.23 1.27-1.23 2.005 0 .98.88 1.763 1.96 1.763h9.816c6.08 0 9.07 2.49 9.07 7.863 0 1.79-.356 3.4-1.094 4.792C-144.304 28.662-142 23.6-142 18zm-16.147 9.86h-7.443c-2.5 0-3.24 1.848-3.24 3.218 0 1.98 1.783 3.806 6.98 3.806 5.91 0 7.515-1.664 7.515-3.83 0-1.888-1.423-3.194-3.812-3.194zM11.478 15.133l-.168-.092c-2.47-1.36-4.104-3.78-4.104-7.03 0-2.79 1.215-4.986 3.285-6.444C4.3 4.408 0 10.666 0 17.926c0 4.926 1.98 9.39 5.188 12.64l-.012-.264c0-3.21 3.133-4.397 5.91-4.97-2.644-.573-3.924-2.464-3.924-4.398 0-2.595 2.902-4.834 4.316-5.8zm6.5-1.673c1.77 0 3.283-.527 3.283-5.455 0-4.927-1.47-5.675-3.28-5.675-1.765 0-3.24.66-3.24 5.675 0 5.016 1.475 5.456 3.24 5.456zM36 17.924c0-7.417-4.487-13.786-10.894-16.542C27.25 2.78 28.55 4.92 28.65 7.662c.032.212.053.416.053.607 0 5.362-4.368 8.22-10.727 8.22-1.634 0-2.74-.09-4.064-.488-.618.44-1.104 1.144-1.104 1.805 0 .88.794 1.586 1.767 1.586h8.834c5.47 0 8.16 2.24 8.16 7.075 0 1.614-.32 3.062-.986 4.315C33.924 27.52 36 22.965 36 17.925zM21.468 26.8h-6.7c-2.25 0-2.916 1.662-2.916 2.895 0 1.78 1.605 3.425 6.283 3.425 5.32 0 6.762-1.497 6.762-3.447 0-1.7-1.28-2.874-3.43-2.874zm-130.716-11.903l-.186-.102c-2.746-1.512-4.56-4.2-4.56-7.818 0-3.1 1.35-5.54 3.65-7.16C-117.22 2.98-122 9.93-122 18c0 5.474 2.2 10.433 5.764 14.045l-.013-.293c0-3.57 3.48-4.887 6.57-5.523v-.008c-2.94-.636-4.36-2.737-4.36-4.886 0-2.883 3.228-5.37 4.797-6.444zm7.222-1.857c1.964 0 3.65-.586 3.65-6.062 0-5.475-1.637-6.306-3.65-6.306-1.964 0-3.6.733-3.6 6.306s1.636 6.062 3.6 6.062zM-82 18c0-8.243-4.985-15.32-12.104-18.38 2.38 1.55 3.826 3.93 3.937 6.978.038.234.06.46.06.673 0 5.97-4.854 9.14-11.918 9.14-1.816 0-3.043-.1-4.516-.537-.69.488-1.23 1.27-1.23 2.005 0 .98.88 1.763 1.96 1.763h9.816c6.08 0 9.07 2.49 9.07 7.863 0 1.79-.356 3.4-1.094 4.792C-84.304 28.662-82 23.6-82 18zm-16.147 9.86h-7.443c-2.5 0-3.24 1.848-3.24 3.218 0 1.98 1.783 3.806 6.98 3.806 5.91 0 7.515-1.664 7.515-3.83 0-1.888-1.423-3.194-3.812-3.194zm48.9-12.963l-.187-.102c-2.746-1.512-4.56-4.2-4.56-7.818 0-3.1 1.35-5.54 3.65-7.16C-57.22 2.98-62 9.93-62 18c0 5.474 2.2 10.433 5.764 14.045l-.013-.293c0-3.57 3.48-4.887 6.57-5.523v-.008c-2.94-.636-4.36-2.737-4.36-4.886 0-2.883 3.228-5.37 4.797-6.444zm7.22-1.857c1.965 0 3.65-.586 3.65-6.062 0-5.475-1.636-6.306-3.65-6.306-1.963 0-3.6.733-3.6 6.306s1.637 6.062 3.6 6.062zM-22 18c0-8.243-4.985-15.32-12.104-18.38 2.38 1.55 3.826 3.93 3.937 6.978.038.234.06.46.06.673 0 5.97-4.854 9.14-11.918 9.14-1.816 0-3.043-.1-4.516-.537-.69.488-1.23 1.27-1.23 2.005 0 .98.88 1.763 1.96 1.763h9.816c6.08 0 9.07 2.49 9.07 7.863 0 1.79-.356 3.4-1.094 4.792C-24.304 28.662-22 23.6-22 18zm-16.147 9.86h-7.443c-2.5 0-3.24 1.848-3.24 3.218 0 1.98 1.783 3.806 6.98 3.806 5.91 0 7.515-1.664 7.515-3.83 0-1.888-1.423-3.194-3.812-3.194z"/></symbol><symbol viewBox="0 0 83 70" id="icon-gifts"><title>gifts</title><path d="M27.783 28.566h4.428v31.37h-4.427zM5.453 55.846l4.09 4.092H24.38V28.566H5.452M58.635 20.707H40.94c1.472-1.518 2.538-3.273 2.997-4.965.523-1.916.232-3.553-.822-4.605-.703-.703-1.686-1.074-2.846-1.074-2.18 0-4.753 1.27-6.882 3.398-2.07 2.073-3.25 4.48-3.38 6.51-.028-.442-.108-.905-.24-1.388-.476-1.752-1.595-3.57-3.145-5.12-2.127-2.128-4.7-3.4-6.88-3.4-1.16 0-2.145.372-2.847 1.075-2.045 2.045-1.08 6.22 2.176 9.57H1.362L0 22.07v3.41l1.363 1.363H24.38v-2.98h3.403v2.98h4.428v-2.98h3.405v2.98h23.02L60 25.48v-3.41l-1.365-1.363zm-30.342 0h-6.67c-.41-.316-.816-.664-1.197-1.047-2.885-2.885-3.533-6.113-2.328-7.32.383-.38.936-.574 1.646-.574 1.71 0 3.887 1.11 5.674 2.9 1.346 1.344 2.31 2.895 2.71 4.365.116.43.233 1.06.165 1.677zm1.713 0V20.7v.007zm8.383 0h-6.675c-.176-1.555.73-3.893 2.877-6.043 1.79-1.787 3.965-2.898 5.678-2.898.71 0 1.262.193 1.645.574.81.814.588 2.2.38 2.953-.397 1.47-1.358 3.02-2.706 4.367-.385.383-.79.73-1.2 1.047zM35.615 59.938h14.838l4.088-4.092v-27.28H35.616"/></symbol><symbol viewBox="0 0 83 70" id="icon-paper_tablet"><title>paper_tablet</title><path d="M77.172 8.607H33.31l-2.07 2.068V67.73l2.067 2.068H77.17l2.068-2.068V10.676l-2.066-2.07zM55.24 67.744c-1.312 0-2.375-1.063-2.375-2.375s1.063-2.374 2.374-2.374 2.373 1.062 2.373 2.373c0 1.31-1.063 2.374-2.374 2.374zm21.13-6.78H34.108v-49.1l.39-.39h41.486l.388.39v49.1z"/><path d="M36.594 21.564h30v1.75h-30zM36.594 25.564h30v1.75h-30zM36.594 29.564h30v1.75h-30zM15.594 21.564h13v1.75h-13zM15.594 25.564h13v1.75h-13zM15.594 29.564h13v1.75h-13z"/><path d="M10.814 43.85V2.982H69.22v3.625H72V.2H9.39L8.033 1.558V42.72L5.44 45.316v.032l-2.648-2.65V9.647H5.86V6.864H2.792v-.01l-2.317.01H0v2.78h.012v34.18L0 43.84l5.112 5.11h24.19v-2.78H8.506"/></symbol><symbol viewBox="0 0 83 70" id="icon-photo_video"><title>photo_video</title><path d="M79.25 31.128l-12.498 12.5v6.25l12.5 12.503h3.124V31.13M50 40.916v-24.36l-3.408-3.41H35.228l-5.682-5.682h-9.09l-5.683 5.683H3.41L0 16.555v24.45l3.41 3.39H46.59L50 40.915zm-25-2.77c-5.648 0-10.227-4.58-10.227-10.227 0-5.65 4.578-10.23 10.227-10.23 5.646 0 10.228 4.58 10.228 10.23 0 5.647-4.582 10.226-10.228 10.226z"/><path d="M52 40.916v.816l-.57.584-3.41 3.48-.587.6H32.376V57.99l4.546 4.545h26.705V30.717H52"/></symbol><symbol viewBox="0 0 83 70" id="icon-premium_app"><title>premium_app</title><path d="M0 29.29l17.11 12.435-6.54 20.123 2.303 1.683L30 51.09 47.12 63.53l2.308-1.682-6.54-20.123L60 29.29l-.887-2.722H37.965l-6.53-20.1H28.56l-6.53 20.1H.886"/></symbol><symbol viewBox="0 0 20 20" id="icon-secure"><title>secure</title><path d="M15.8 8H14V5.6C14 2.703 12.665 1 10 1S6 2.703 6 5.6V8H4c-.553 0-1 .646-1 1.2V17c0 .55.428 1.14.95 1.307l1.198.387C5.672 18.86 6.55 19 7.1 19h5.8c.55 0 1.428-.14 1.95-.307l1.197-.387C16.57 18.14 17 17.55 17 17V9.2c0-.554-.648-1.2-1.2-1.2zM12 8H8V5.2C8 3.753 8.797 3 10 3s2 .754 2 2.2V8z"/></symbol><symbol viewBox="0 0 83 70" id="icon-share"><title>share</title><path d="M76.622 44.6l-1.577-1.533c-3.52-1.166-7.286-1.8-11.202-1.8-2.816 0-5.554.33-8.182.95l3.924 16.12-1.563 1.952h20.534L80 58.48 76.622 44.6zM63.843 37.896c3.326 0 7.3-3.732 7.3-8.337 0-4.605-2.694-7.296-7.3-7.296s-7.296 2.69-7.296 7.295 4.302 8.336 7.296 8.336zM10.34 45.96c1.916 0 4.67-2.39 4.67-5.337s-1.723-4.67-4.67-4.67-4.67 1.723-4.67 4.67 2.54 5.336 4.67 5.336zM36.063 30.507c4.42 0 9.705-4.966 9.705-11.093 0-6.125-3.58-9.704-9.705-9.704-6.128 0-9.71 3.58-9.71 9.704 0 6.128 5.722 11.093 9.71 11.093zM50.96 37.38c-4.684-1.55-9.69-2.395-14.896-2.395-5.237 0-10.27.85-14.977 2.417l-2.115 2.068-4.417 18.46 1.886 2.358H55.63l1.923-2.402L53.06 39.42l-2.097-2.04zM14.827 48.592c-1.455-.293-2.947-.477-4.488-.477-2.507 0-4.918.406-7.17 1.15l-1.01.982L0 59.133l.923 1.156h13.05l-1.53-1.9 2.384-9.798z"/></symbol><symbol viewBox="0 0 20 20" id="icon-user"><title>user</title><path stroke="null" d="M10 8.3c1.55 0 3.4-1.75 3.4-3.9S12.15 1 10 1 6.6 2.25 6.6 4.4s2 3.9 3.4 3.9zm5.86 3.4l-.86-.82c-1.67-.58-3.14-.88-5-.88-1.87 0-3.32.3-5 .86l-.86.85L2 18.16l.86.84h14.28l.86-.86-2.14-6.42v-.02z"/></symbol></svg>