<svg id="svg-sprite" width="0" height="0"><symbol viewBox="0 0 16 16" id="icon-arrow-down"><title>arrow-down</title><path d="M15.894 5.902l-7.145 5.716L8 12.23l-.749-.612L.106 5.902l.34-.476 7.553 4.287 7.553-4.287.34.476z"/></symbol><symbol viewBox="0 0 20 18" id="icon-arrow-left"><title>arrow-left</title><path d="M0 8.56L9.084.054l.86.81-6.542 7.31H20v1.653H3.402l6.542 7.312-.86.81L0 9.403V8.56z"/></symbol><symbol viewBox="0 0 20 18" id="icon-arrow-right"><title>arrow-right</title><path d="M20 9.352l-9.084 8.543-.86-.81 6.542-7.31H0V8.12h16.598L10.056.81l.86-.81L20 8.508v.844z"/></symbol><symbol viewBox="0 0 20 20" id="icon-arrow-up"><title>arrow-up</title><path d="M.109 13.267l8.953-7.162.938-.767.938.767 8.953 7.162-.426.597-9.464-5.372-9.464 5.372-.426-.597H.109z" stroke="null"/></symbol><symbol viewBox="0 0 83 70" id="icon-discounts"><title>discounts</title><path d="M38.566 35.847c-1.655 0-2.088 1.548-2.088 4.571s.433 4.607 2.052 4.607c1.656 0 2.052-1.367 2.052-4.463s-.395-4.715-2.016-4.715zM23.484 28.972c0-3.096-.396-4.716-2.052-4.716-1.619 0-2.052 1.512-2.052 4.571 0 3.024.433 4.607 2.052 4.607 1.621.001 2.052-1.403 2.052-4.462z"/><path d="M30 5C13.431 5 0 18.432 0 35s13.431 30 30 30c16.568 0 30-13.432 30-30S46.568 5 30 5zM14.81 28.972c0-4.968 3.239-7.235 6.623-7.235 3.312 0 6.659 2.196 6.659 7.056 0 4.895-3.203 7.163-6.695 7.163-3.492-.001-6.587-2.197-6.587-6.984zm8.17 19.581h-3.348l17.062-27.104h3.384L22.98 48.553zm15.55-1.008c-3.491 0-6.623-2.195-6.623-6.982 0-4.968 3.275-7.235 6.659-7.235 3.312 0 6.623 2.195 6.623 7.055 0 4.894-3.203 7.162-6.659 7.162z"/></symbol><symbol viewBox="0 0 16 16" id="icon-email"><title>email</title><path d="M13.446 6.42l-.35-.352L8.087 8.44 3.08 6.068l-.263.35 5.27 4.305 5.36-4.304zM14.5 2.29H1.412L.094 4.486v8.17L1.5 13.708h13.087l1.318-1.055v-8.17L14.5 2.29zm-.44 9.487H1.94V4.223h12.12v7.554z"/></symbol><symbol viewBox="0 0 83 70" id="icon-every_day"><title>every_day</title><path d="M57.283 16.142c-13.807 0-25 11.191-25 25 0 13.805 11.193 24.998 25 24.998s25-11.193 25-24.998c0-13.809-11.193-25-25-25zm15.908 27.271L57.34 44.892l-2.897-2.898 1.704-21.307h2.217l1.646 19.658 13.182.797v2.271z"/><path d="M8.506 49.827l2.309-2.32V6.64H69.22v9.257c.958.449 1.886.95 2.78 1.501V3.86H9.39L8.034 5.216v41.162l-2.595 2.596.002.031-2.648-2.648V13.304H5.86v-2.779H2.793v-.013l-2.317.013H0v2.779h.012v34.182L0 47.495l5.112 5.111h26.659a27.664 27.664 0 0 1-1.066-2.779H8.506z"/><path d="M33.283 26.974c.355-.599.736-1.182 1.135-1.751H15.595v1.751h17.688zM15.595 30.974h15.724c.234-.593.484-1.179.758-1.751H15.595v1.751zM30.535 33.223h-14.94v1.751h14.479c.136-.591.287-1.175.461-1.751z"/></symbol><symbol viewBox="0 0 36 36" id="icon-g-mark"><title>g-mark</title><path d="M-169.248 14.897l-.186-.102c-2.746-1.512-4.56-4.2-4.56-7.818 0-3.1 1.35-5.54 3.65-7.16C-177.22 2.98-182 9.93-182 18c0 5.474 2.2 10.433 5.764 14.045l-.013-.293c0-3.57 3.48-4.887 6.57-5.523v-.007c-2.94-.636-4.36-2.737-4.36-4.886 0-2.883 3.227-5.37 4.796-6.444zm7.222-1.857c1.964 0 3.65-.586 3.65-6.062 0-5.475-1.637-6.306-3.65-6.306-1.964 0-3.6.733-3.6 6.306s1.636 6.062 3.6 6.062zM-142 18c0-8.242-4.985-15.318-12.104-18.38 2.38 1.55 3.826 3.93 3.937 6.978.038.234.06.46.06.673 0 5.97-4.854 9.14-11.918 9.14-1.816 0-3.043-.1-4.516-.538-.69.488-1.23 1.27-1.23 2.005 0 .98.88 1.763 1.96 1.763h9.817c6.08 0 9.07 2.49 9.07 7.862 0 1.79-.356 3.4-1.094 4.792A19.934 19.934 0 0 0-142 18zm-16.147 9.86h-7.443c-2.5 0-3.24 1.848-3.24 3.218 0 1.98 1.783 3.806 6.98 3.806 5.91 0 7.515-1.664 7.515-3.83 0-1.888-1.423-3.194-3.812-3.194zM11.478 15.133l-.168-.092c-2.47-1.36-4.104-3.78-4.104-7.03 0-2.79 1.215-4.987 3.285-6.445C4.3 4.408 0 10.665 0 17.925c0 4.927 1.98 9.39 5.188 12.64l-.012-.263c0-3.21 3.133-4.397 5.91-4.97-2.644-.573-3.924-2.464-3.924-4.398 0-2.595 2.902-4.834 4.316-5.8zm6.5-1.673c1.77 0 3.283-.527 3.283-5.455 0-4.927-1.47-5.675-3.28-5.675-1.766 0-3.24.66-3.24 5.675 0 5.016 1.474 5.456 3.24 5.456zM36 17.924c0-7.417-4.487-13.786-10.894-16.542C27.25 2.78 28.55 4.92 28.65 7.662c.032.212.053.416.053.607 0 5.363-4.368 8.22-10.727 8.22-1.634 0-2.74-.09-4.064-.487-.618.44-1.104 1.144-1.104 1.805 0 .88.794 1.586 1.767 1.586h8.834c5.47 0 8.16 2.24 8.16 7.075 0 1.614-.32 3.062-.985 4.315A17.918 17.918 0 0 0 36 17.925zM21.468 26.8h-6.7c-2.25 0-2.916 1.662-2.916 2.895 0 1.78 1.605 3.425 6.283 3.425 5.32 0 6.762-1.497 6.762-3.447 0-1.7-1.28-2.874-3.43-2.874zm-130.716-11.903l-.186-.102c-2.746-1.512-4.56-4.2-4.56-7.818 0-3.1 1.35-5.54 3.65-7.16C-117.22 2.98-122 9.93-122 18c0 5.474 2.2 10.433 5.764 14.045l-.013-.293c0-3.57 3.48-4.887 6.57-5.523v-.007c-2.94-.636-4.36-2.737-4.36-4.886 0-2.883 3.227-5.37 4.796-6.444zm7.222-1.857c1.964 0 3.65-.586 3.65-6.062 0-5.475-1.637-6.306-3.65-6.306-1.964 0-3.6.733-3.6 6.306s1.636 6.062 3.6 6.062zM-82 18c0-8.243-4.985-15.32-12.104-18.38 2.38 1.55 3.826 3.93 3.937 6.978.038.234.06.46.06.673 0 5.97-4.854 9.14-11.918 9.14-1.816 0-3.043-.1-4.516-.538-.69.488-1.23 1.27-1.23 2.005 0 .98.88 1.763 1.96 1.763h9.817c6.08 0 9.07 2.49 9.07 7.862 0 1.79-.356 3.4-1.094 4.792A19.934 19.934 0 0 0-82 18zm-16.147 9.86h-7.443c-2.5 0-3.24 1.848-3.24 3.218 0 1.98 1.783 3.806 6.98 3.806 5.91 0 7.515-1.664 7.515-3.83 0-1.888-1.423-3.194-3.812-3.194zm48.899-12.963l-.186-.102c-2.746-1.512-4.56-4.2-4.56-7.818 0-3.1 1.35-5.54 3.65-7.16C-57.22 2.98-62 9.93-62 18c0 5.474 2.2 10.433 5.764 14.045l-.013-.293c0-3.57 3.48-4.887 6.57-5.523v-.007c-2.94-.636-4.36-2.737-4.36-4.886 0-2.883 3.227-5.37 4.796-6.444zm7.222-1.857c1.964 0 3.65-.586 3.65-6.062 0-5.475-1.637-6.306-3.65-6.306-1.964 0-3.6.733-3.6 6.306s1.636 6.062 3.6 6.062zM-22 18c0-8.243-4.985-15.32-12.104-18.38 2.38 1.55 3.826 3.93 3.937 6.978.038.234.06.46.06.673 0 5.97-4.854 9.14-11.918 9.14-1.816 0-3.043-.1-4.516-.538-.69.488-1.23 1.27-1.23 2.005 0 .98.88 1.763 1.96 1.763h9.817c6.08 0 9.07 2.49 9.07 7.862 0 1.79-.356 3.4-1.094 4.792A19.934 19.934 0 0 0-22 18zm-16.147 9.86h-7.443c-2.5 0-3.24 1.848-3.24 3.218 0 1.98 1.783 3.806 6.98 3.806 5.91 0 7.515-1.664 7.515-3.83 0-1.888-1.423-3.194-3.812-3.194z"/></symbol><symbol viewBox="0 0 83 70" id="icon-gifts"><title>gifts</title><path d="M27.783 28.566h4.428v31.371h-4.428zM5.453 55.846l4.09 4.092h14.836V28.566H5.453zM58.635 20.707H40.939c1.473-1.518 2.539-3.273 2.998-4.965.523-1.916.232-3.553-.822-4.605-.703-.703-1.686-1.074-2.846-1.074-2.18 0-4.752 1.271-6.881 3.398-2.07 2.072-3.25 4.479-3.381 6.51a6.925 6.925 0 0 0-.238-1.389c-.477-1.752-1.596-3.57-3.146-5.121-2.127-2.127-4.699-3.398-6.879-3.398-1.162 0-2.146.371-2.848 1.074-2.045 2.045-1.08 6.219 2.176 9.57H1.363L0 22.07v3.41l1.363 1.363h23.016v-2.979h3.404v2.979h4.428v-2.979h3.404v2.979h23.02L60 25.48v-3.41l-1.365-1.363zm-30.342 0h-6.67c-.41-.316-.816-.664-1.197-1.047-2.885-2.885-3.533-6.113-2.328-7.32.383-.381.936-.574 1.646-.574 1.711 0 3.887 1.111 5.674 2.9 1.346 1.344 2.309 2.895 2.709 4.365.117.428.234 1.059.166 1.676zm1.713 0v-.006.006zm8.383 0h-6.674c-.176-1.555.73-3.893 2.877-6.043 1.791-1.787 3.965-2.898 5.678-2.898.709 0 1.262.193 1.645.574.811.814.588 2.201.381 2.953-.398 1.471-1.359 3.02-2.707 4.367-.384.383-.79.731-1.2 1.047zM35.615 59.938h14.838l4.088-4.092v-27.28H35.615z"/></symbol><symbol viewBox="0 0 83 70" id="icon-paper_tablet"><title>paper_tablet</title><path d="M77.172 8.607H33.309l-2.07 2.068V67.73l2.068 2.068h43.864l2.067-2.068V10.676l-2.066-2.069zM55.239 67.744a2.374 2.374 0 1 1 0-4.749 2.374 2.374 0 0 1 0 4.749zm21.132-6.779H34.107V11.864l.389-.39h41.487l.388.389v49.102z"/><path d="M36.594 21.564h30v1.751h-30zM36.594 25.564h30v1.751h-30zM36.594 29.564h30v1.751h-30zM15.594 21.564h13v1.751h-13zM15.594 25.564h13v1.751h-13zM15.594 29.564h13v1.751h-13z"/><path d="M10.814 43.85V2.982h58.405v3.625H72V.201H9.389L8.034 1.557v41.164l-2.595 2.594.002.032-2.649-2.65V9.646H5.86V6.865H2.792v-.011l-2.317.011H0v2.781h.012v34.18L0 43.838l5.112 5.111h24.191v-2.78H8.505z"/></symbol><symbol viewBox="0 0 83 70" id="icon-photo_video"><title>photo_video</title><path d="M79.251 31.128L66.752 43.629v6.25l12.499 12.502h3.125V31.128zM50 40.916V16.555l-3.408-3.408H35.228l-5.682-5.683h-9.091l-5.682 5.683H3.409L0 16.555v24.449l3.409 3.391h43.183L50 40.916zm-25-2.77c-5.648 0-10.227-4.58-10.227-10.227 0-5.649 4.578-10.228 10.227-10.228 5.646 0 10.228 4.578 10.228 10.228 0 5.648-4.582 10.227-10.228 10.227z"/><path d="M52 40.916v.816l-.571.584-3.408 3.479-.588.6H32.376V57.99l4.546 4.545h26.705V30.717H52z"/></symbol><symbol viewBox="0 0 83 70" id="icon-premium_app"><title>premium_app</title><path d="M0 29.291l17.109 12.434-6.539 20.123 2.303 1.683L30 51.088l17.121 12.443 2.307-1.683-6.541-20.123L60 29.291l-.887-2.723H37.965L31.434 6.469h-2.872l-6.529 20.099H.885z"/></symbol><symbol viewBox="0 0 20 20" id="icon-secure"><title>secure</title><path d="M15.8 8H14V5.6C14 2.703 12.665 1 10 1S6 2.703 6 5.6V8H4c-.553 0-1 .646-1 1.199V17c0 .549.428 1.139.951 1.307l1.197.387A7.731 7.731 0 0 0 7.1 19h5.8a7.68 7.68 0 0 0 1.951-.307l1.196-.387c.524-.167.953-.757.953-1.306V9.199C17 8.646 16.352 8 15.8 8zM12 8H8V5.199C8 3.754 8.797 3 10 3s2 .754 2 2.199V8z"/></symbol><symbol viewBox="0 0 83 70" id="icon-share"><title>share</title><path d="M76.622 44.6l-1.577-1.533a35.57 35.57 0 0 0-11.202-1.801c-2.816 0-5.554.332-8.182.951l3.923 16.121-1.563 1.951h20.533L80 58.482 76.622 44.6zM63.843 37.896c3.326 0 7.299-3.732 7.299-8.337 0-4.604-2.693-7.295-7.299-7.295s-7.296 2.691-7.296 7.295c0 4.606 4.302 8.337 7.296 8.337zM10.339 45.959c1.917 0 4.67-2.389 4.67-5.336s-1.722-4.669-4.67-4.669-4.67 1.722-4.67 4.669 2.541 5.336 4.67 5.336zM36.063 30.507c4.42 0 9.705-4.966 9.705-11.093 0-6.125-3.581-9.704-9.705-9.704-6.128 0-9.709 3.579-9.709 9.704 0 6.128 5.721 11.093 9.709 11.093zM50.961 37.379a47.334 47.334 0 0 0-14.897-2.394 47.35 47.35 0 0 0-14.977 2.417l-2.115 2.068-4.417 18.461 1.886 2.357h39.187l1.923-2.402-4.493-18.466-2.097-2.041zM14.827 48.592c-1.455-.293-2.947-.477-4.488-.477a22.82 22.82 0 0 0-7.169 1.15l-1.011.982L0 59.133l.923 1.156h13.049l-1.528-1.9 2.383-9.797z"/></symbol><symbol viewBox="0 0 20 20" id="icon-user"><title>user</title><path stroke="null" d="M10 8.3c1.55 0 3.4-1.75 3.4-3.9S12.15 1 10 1 6.6 2.25 6.6 4.4s2 3.9 3.4 3.9zm5.86 3.4l-.86-.82c-1.67-.58-3.14-.88-5-.88-1.87 0-3.32.3-5 .86l-.86.85L2 18.16l.86.84h14.28l.86-.86-2.14-6.42v-.02z"/></symbol></svg>