<svg xmlns="http://www.w3.org/2000/svg" viewBox="0 0 254.10667 86.666664" height="86.667" width="254.107"><defs><clipPath id="a"><path d="M0 650v-650h1905.76v650h-1905.76z"/></clipPath><clipPath id="c"><path d="M593.941 125.918c0-36.816-29.847-66.672-66.675-66.672h-393.45c-36.82 0-66.668 29.855-66.668 66.672v289.332s112.149-19.551 263.399-18.441c142.015 1.039 263.394 18.441 263.394 18.441v-289.332z"/></clipPath><linearGradient id="b" gradientTransform="matrix(0 -356.006 -356.006 0 330.542 415.249)" gradientUnits="userSpaceOnUse" x2="1"><stop offset="0" stop-color="#f79328"/><stop offset="1" stop-color="#c55c19"/></linearGradient><clipPath id="d"><path d="M0 650v-650h1905.76v650h-1905.76z"/></clipPath></defs><g><g clip-path="url(#a)"><path d="M253.466 73.993c0 6.999-5.674 12.674-12.674 12.674h-228.119c-6.999 0-12.673-5.675-12.673-12.674v-61.103c0-7 5.674-12.673 12.673-12.673h228.119c7 0 12.674 5.674 12.674 12.673v61.103" fill="#231f20"/><path d="M78.857 69.782c0 4.898-3.97 8.867-8.867 8.867h-52.329c-4.897 0-8.867-3.97-8.867-8.867v-52.328c0-4.898 3.97-8.867 8.867-8.867h52.329c4.898 0 8.867 3.97 8.867 8.867v52.328" fill="#fff"/></g><path d="M78.994 69.92c0 4.897-3.97 8.867-8.868 8.867h-52.329c-4.897 0-8.867-3.971-8.867-8.867v-38.481s14.916 2.6 35.032 2.453c18.888-.138 35.031-2.453 35.031-2.453v38.481" fill="url(#b)" clip-path="url(#c)"/><g clip-path="url(#d)"><path d="M17.798 8.655c-4.851 0-8.799 3.947-8.799 8.799v52.328c0 4.852 3.947 8.799 8.799 8.799h52.329c4.852 0 8.8-3.947 8.8-8.799v-52.328c0-4.852-3.947-8.799-8.8-8.799h-52.329zm52.329 70.064h-52.329c-4.927 0-8.935-4.008-8.935-8.936v-52.328c0-4.927 4.009-8.937 8.935-8.937h52.329c4.928 0 8.936 4.009 8.936 8.937v52.328c0 4.928-4.008 8.936-8.936 8.936" fill="#231f20"/><path d="M49.909 26.981c-2.86 2.164-7.006 3.315-10.577 3.315-5.004 0-9.51-1.897-12.92-5.055-.268-.247-.03-.586.292-.394 3.679 2.195 8.228 3.517 12.927 3.517 3.17 0 6.655-.675 9.861-2.069.483-.21.889.327.416.685" fill="#231f20" fill-rule="evenodd"/><path d="M51.098 25.588c-.366-.481-2.418-.228-3.34-.115-.279.034-.322-.216-.071-.397 1.637-1.179 4.32-.839 4.632-.444.314.398-.083 3.156-1.617 4.472-.236.203-.46.095-.356-.173.346-.884 1.118-2.864.752-3.343" fill="#231f20" fill-rule="evenodd"/><path d="M47.687 16.746v-1.146c.001-.174.128-.29.283-.29h5.007c.16 0 .288.12.289.289l-.001.982c-.001.165-.136.38-.376.722l-2.595 3.797c.963-.022 1.982.125 2.857.63.197.113.25.282.265.447v1.223c0 .168-.18.363-.369.261-1.541-.828-3.587-.918-5.291.01-.174.095-.356-.097-.356-.265v-1.163c0-.185.003-.504.187-.787l3.005-4.421h-2.617c-.16 0-.288-.117-.289-.289" fill="#231f20" fill-rule="evenodd"/><path d="M29.557 23.902h-1.523c-.145-.01-.261-.122-.273-.264l.001-8.018c0-.161.132-.288.295-.288h1.418c.149.007.268.123.277.269v1.047h.029c.37-1.012 1.067-1.485 2.005-1.485.953 0 1.55.473 1.976 1.485.37-1.012 1.208-1.485 2.105-1.485.64 0 1.336.27 1.763.878.484.675.384 1.654.384 2.514l-.001 5.06c0 .159-.132.288-.294.288h-1.522c-.153-.01-.274-.135-.274-.288v-4.251c0-.337.028-1.181-.043-1.501-.114-.54-.455-.691-.896-.691-.37 0-.754.253-.91.658-.157.405-.142 1.08-.142 1.535v4.25c0 .159-.132.288-.294.288h-1.522c-.153-.01-.274-.135-.274-.288l-.002-4.251c0-.895.142-2.21-.938-2.21-1.095 0-1.053 1.283-1.053 2.21l-.001 4.25c.001.159-.131.288-.294.288" fill="#231f20" fill-rule="evenodd"/><path d="M57.455 16.8c-1.124 0-1.195 1.568-1.195 2.547 0 .979-.015 3.072 1.181 3.072 1.18 0 1.237-1.688 1.237-2.717 0-.675-.029-1.485-.228-2.126-.171-.556-.512-.775-.995-.775zm-.014-1.638c2.26 0 3.484 1.991 3.484 4.522 0 2.447-1.351 4.387-3.484 4.387-2.219 0-3.428-1.991-3.428-4.471 0-2.497 1.223-4.438 3.428-4.438" fill="#231f20" fill-rule="evenodd"/><path d="M63.857 23.902h-1.518c-.153-.01-.273-.135-.273-.288l-.003-8.021c.013-.146.139-.261.293-.261h1.413c.132.007.242.1.271.224v1.227h.029c.426-1.097 1.023-1.62 2.076-1.62.683 0 1.351.253 1.777.945.399.641.399 1.721.399 2.497v5.045c-.017.142-.142.252-.292.252h-1.527c-.142-.009-.255-.115-.272-.252v-4.353c0-.878.099-2.16-.953-2.16-.37 0-.711.253-.882.641-.213.49-.242.979-.242 1.519v4.317c-.003.159-.134.288-.297.288" fill="#231f20" fill-rule="evenodd"/><path d="M45.367 23.882c-.101.093-.246.099-.36.036-.505-.431-.596-.63-.873-1.041-.836.873-1.429 1.135-2.512 1.135-1.282 0-2.28-.811-2.28-2.435 0-1.268.669-2.13 1.624-2.553.827-.372 1.982-.44 2.865-.541v-.203c0-.372.028-.811-.185-1.132-.185-.288-.541-.406-.855-.406-.581 0-1.098.305-1.224.938-.026.141-.127.279-.264.287l-1.477-.164c-.125-.028-.263-.131-.227-.327.339-1.836 1.957-2.391 3.407-2.391.741 0 1.71.203 2.294.778.741.71.67 1.657.67 2.688v2.434c0 .733.297 1.053.575 1.448.097.142.119.311-.005.415-.311.267-.863.76-1.168 1.037l-.004-.003zm-1.536-3.809c0 .608.014 1.116-.285 1.657-.243.439-.628.71-1.055.71-.584 0-.926-.457-.926-1.133 0-1.331 1.164-1.573 2.266-1.573v.338" fill="#231f20" fill-rule="evenodd"/><path d="M25.533 23.882c-.101.093-.246.099-.359.036-.506-.431-.597-.63-.873-1.041-.836.873-1.429 1.135-2.512 1.135-1.283 0-2.28-.811-2.28-2.435 0-1.268.67-2.13 1.625-2.553.826-.372 1.981-.44 2.865-.541v-.203c0-.372.028-.811-.185-1.132-.186-.288-.541-.406-.856-.406-.58 0-1.097.305-1.224.938-.026.141-.127.279-.264.287l-1.477-.164c-.125-.028-.264-.131-.227-.327.339-1.836 1.957-2.391 3.407-2.391.741 0 1.71.203 2.294.778.741.71.67 1.657.67 2.688v2.434c0 .733.296 1.053.575 1.448.098.142.119.311-.005.415-.311.267-.863.76-1.168 1.037l-.004-.003zm-1.536-3.809c0 .608.014 1.116-.285 1.657-.242.439-.627.71-1.055.71-.584 0-.926-.457-.926-1.133 0-1.331 1.164-1.573 2.266-1.573v.338" fill="#231f20" fill-rule="evenodd"/><path d="M36.598 53.675c0 6.84-5.545 12.386-12.384 12.386-6.84 0-12.385-5.546-12.385-12.386 0-6.839 5.545-12.383 12.385-12.383 6.839 0 12.384 5.545 12.384 12.383" fill="#1f2b6a"/><path d="M24.906 48.946h-2.971v11.011s-.131.217-.393-.138c-.129-.176-3.626-5.368-3.626-5.368s-.568-.567-1.398-.349c-.831.218-1.137.785-.743 1.486.393.699 3.058 7.033 6.51 8.782 2.454 1.241 5.374.785 7.034 0 1.469-.695 3.767-2.403 3.941-4.675.175-2.273-.004-4.282-.004-4.282h-1.547v2.752h-.993v-4.02h-1.748v3.286h-1.042v-4.29h-1.967v4.072h-.955l-.099-8.267" fill="#fff"/><path d="M16.693 50.477h2.49v-1.53h-2.49v1.53z" fill="#fff"/><path d="M27.811 50.477h2.491v-1.53h-2.491v1.53z" fill="#fff"/><path d="M22.11 46.325h2.578v-2.883h-2.578v2.883z" fill="#fff"/><path d="M19.882 47.723l.918-.917-1.698-1.748-1.027.918 1.807 1.747" fill="#fff"/><path d="M27.229 47.45l-.78-1.055 1.835-1.474.753 1.055-1.807 1.474" fill="#fff"/><path d="M45.095 53.185h-.204c-1.965 0-3.134.466-3.134 2.057 0 .998.575 1.675 1.465 1.675 1.372 0 1.873-1.166 1.873-3.117v-.616zm-4.525-4.942c.649-.339 1.558-.805 3.023-.805 2.966 0 3.653 1.654 3.653 4.39v4.772c0 .785-.063 1.507-.007 1.93h-2.077c-.047-.5.007-.953.007-1.485h-.037c-.575.892-1.298 1.655-2.67 1.655-1.483 0-2.855-1.167-2.855-3.203 0-2.969 2.114-3.712 5.025-3.712h.464v-.403c0-1.082-.464-2.078-1.78-2.078-1.15 0-2.17.636-2.615 1.06l-.13-2.121" fill="#fff"/><path d="M44.891 53.253c-2.149 0-3.065.595-3.065 1.989 0 .976.549 1.608 1.397 1.608 1.231 0 1.804-.969 1.804-3.05v-.547h-.136zm-1.669 3.733c-.917 0-1.533-.701-1.533-1.744 0-1.49.957-2.125 3.202-2.125h.204l.068.068v.616c0 2.174-.617 3.186-1.941 3.186zm1.409-5.133c-3.427 0-4.956 1.123-4.956 3.644 0 2.057 1.402 3.135 2.786 3.135 1.376 0 2.069-.78 2.613-1.623l.058-.031h.037l.069.067-.014.547c-.011.296-.021.576.002.87h1.937c-.025-.266-.013-.621-.001-1.026l.017-.836v-4.772c0-2.595-.609-4.322-3.584-4.322-1.433 0-2.344.46-2.952.778l.119 1.935c.472-.404 1.44-.983 2.555-.983 1.175 0 1.848.782 1.848 2.147v.403l-.068.068h-.464zm-2.169 6.915c-1.453 0-2.923-1.124-2.923-3.271 0-3.351 2.721-3.78 5.093-3.78h.395v-.336c0-.604-.166-2.011-1.711-2.011-1.164 0-2.161.656-2.567 1.042l-.073.015-.043-.06-.13-2.121.036-.064c.62-.324 1.556-.814 3.054-.814 3.089 0 3.721 1.782 3.721 4.459v4.772c0 .294-.008.572-.017.84-.013.441-.025.82.009 1.081l-.016.055-.051.023h-2.077l-.068-.062c-.031-.326-.019-.628-.007-.949l.012-.368c-.531.789-1.272 1.55-2.638 1.55" fill="#fff"/><path d="M53.495 56.495c1.279 0 1.997-1.147 1.997-3.331 0-2.524-.625-3.797-1.96-3.797-1.354 0-1.817 1.538-1.817 3.595 0 2.122.519 3.533 1.78 3.533zm-4.08-7.023l-.006-1.848 2.013.005c.019.342.007.383.007 1.125h.055c.371-.932 1.193-1.318 2.677-1.318 2.374 0 3.493 2.587 3.493 5.62 0 3.564-1.379 5.368-3.437 5.368-1.373 0-2.133-.206-2.467-1.055h-.037v5.193h-2.299v-13.091" fill="#fff"/><path d="M53.532 49.435c-1.161 0-1.749 1.187-1.749 3.528 0 1.581.297 3.464 1.712 3.464 1.244 0 1.929-1.159 1.929-3.263 0-2.509-.619-3.729-1.892-3.729zm-.037 7.129c-1.21 0-1.849-1.245-1.849-3.601 0-2.431.634-3.664 1.886-3.664 1.366 0 2.029 1.264 2.029 3.866 0 2.192-.734 3.4-2.066 3.4zm-4.011 5.932h2.162v-5.125l.069-.069h.037l.064.044c.294.747.922 1.012 2.403 1.012 2.141 0 3.369-1.931 3.369-5.3 0-2.562-.897-5.553-3.425-5.553-1.476 0-2.258.382-2.613 1.277l-.063.043h-.055l-.069-.069.003-.556-.006-.501-1.88-.005.003.616.004 1.164v13.023zm2.23.136h-2.299l-.068-.068v-13.091l-.004-1.163-.003-.685.02-.049.049-.019 2.013.005.068.065.009.574-.002.356c.408-.831 1.219-1.189 2.664-1.189 2.164 0 3.561 2.233 3.561 5.689s-1.278 5.437-3.505 5.437c-1.223 0-2.033-.152-2.435-.894v4.963l-.069.068" fill="#fff"/><path d="M68.848 55.6c.387.165 1.372.838 2.492.838.87 0 1.546-.227 1.546-1.051 0-.411-.193-.803-1.062-1.339l-1.396-.891c-1.005-.639-1.695-1.102-1.695-2.577 0-1.701 1.333-3.143 3.438-3.143 1.275 0 2.26.349 2.492.432l-.136 1.977c-.599-.246-1.236-.474-2.106-.474-.965 0-1.371.392-1.371 1.03 0 .577.29.801.986 1.274l1.652.79c1.299.761 1.653 1.819 1.653 2.777 0 1.957-1.408 3.268-3.572 3.268-1.237 0-2.534-.446-3.036-.652l.116-2.259" fill="#fff"/><path d="M68.802 57.814c.35.14 1.666.63 2.966.63 2.128 0 3.504-1.256 3.504-3.2 0-1.174-.545-2.088-1.62-2.719l-1.645-.785c-.714-.486-1.025-.724-1.025-1.337 0-.5.25-1.097 1.44-1.097.853 0 1.48.213 2.044.443l.125-1.831c-.977-.339-1.853-.412-2.42-.412-1.953 0-3.37 1.294-3.37 3.076 0 1.462.697 1.905 1.664 2.518l1.395.893c.777.478 1.094.883 1.094 1.396 0 .754-.528 1.119-1.614 1.119-.908 0-1.726-.431-2.215-.69l-.213-.11-.108 2.108zm2.966.766c-1.39 0-2.794-.546-3.062-.657l-.042-.067.116-2.259.032-.055.063-.005.314.157c.478.252 1.277.674 2.151.674 1.008 0 1.476-.311 1.476-.982 0-.387-.174-.753-1.029-1.28l-1.397-.893c-.964-.613-1.726-1.097-1.726-2.634 0-1.861 1.474-3.212 3.506-3.212.587 0 1.499.076 2.515.437l.046.068-.136 1.978-.032.054-.062.005c-.574-.237-1.207-.469-2.08-.469-.876 0-1.302.315-1.302.961 0 .545.275.755.956 1.218l1.642.784c1.124.658 1.692 1.613 1.692 2.839 0 1.995-1.463 3.336-3.64 3.336" fill="#fff"/><path d="M63.375 56.495c1.279 0 1.998-1.147 1.998-3.331 0-2.524-.626-3.797-1.961-3.797-1.353 0-1.817 1.538-1.817 3.595 0 2.122.519 3.533 1.78 3.533zm-4.08-7.023l-.006-1.848 2.013.005c.018.342.007.383.007 1.125h.055c.371-.932 1.194-1.318 2.677-1.318 2.373 0 3.493 2.587 3.493 5.62 0 3.564-1.379 5.368-3.437 5.368-1.372 0-2.133-.206-2.466-1.055h-.038v5.193h-2.299v-13.091" fill="#fff"/><path d="M63.411 49.435c-1.161 0-1.748 1.187-1.748 3.528 0 1.581.296 3.464 1.711 3.464 1.244 0 1.93-1.159 1.93-3.263 0-2.509-.619-3.729-1.893-3.729zm-.037 7.129c-1.21 0-1.849-1.245-1.849-3.601 0-2.431.634-3.664 1.886-3.664 1.366 0 2.029 1.264 2.029 3.866 0 2.192-.733 3.4-2.066 3.4zm-4.011 5.932h2.162v-5.125l.068-.069h.038l.063.044c.294.747.923 1.012 2.403 1.012 2.14 0 3.369-1.931 3.369-5.3 0-2.562-.897-5.553-3.425-5.553-1.477 0-2.257.382-2.614 1.277l-.063.043h-.055l-.068-.069.002-.556-.006-.501-1.879-.005.001.616.004 1.164v13.023zm2.23.136h-2.299l-.068-.068v-13.091l-.004-1.163-.001-.685.02-.049.048-.019 2.013.005.068.065.01.574-.002.356c.409-.831 1.219-1.189 2.664-1.189 2.163 0 3.562 2.233 3.562 5.689s-1.278 5.437-3.506 5.437c-1.224 0-2.033-.152-2.435-.894v4.963l-.069.068" fill="#fff"/><path d="M179.352 69.644c-7.854 5.794-19.238 8.877-29.042 8.877-13.739 0-26.111-5.078-35.475-13.532-.735-.664-.078-1.572.804-1.057 10.102 5.878 22.595 9.417 35.496 9.417 8.705 0 18.272-1.807 27.075-5.538 1.327-.564 2.441.874 1.142 1.833" fill="#f68c14" fill-rule="evenodd"/><path d="M182.62 65.913c-1.005-1.287-6.641-.61-9.172-.307-.767.093-.886-.578-.194-1.063 4.495-3.156 11.861-2.245 12.716-1.188.863 1.066-.226 8.451-4.44 11.975-.646.543-1.264.253-.976-.464.948-2.365 3.07-7.667 2.065-8.953" fill="#f68c14" fill-rule="evenodd"/><path d="M173.628 42.24v-3.068c.001-.467.354-.777.777-.777l13.75-.002c.44 0 .793.321.793.776v2.631c-.003.442-.375 1.018-1.036 1.93l-7.121 10.17c2.643-.062 5.44.334 7.843 1.683.54.304.686.756.728 1.198v3.273c0 .452-.492.974-1.011.703-4.232-2.217-9.849-2.462-14.529.024-.477.256-.978-.258-.978-.709v-3.113c0-.498.009-1.349.511-2.107l8.253-11.839-7.185-.001c-.44 0-.791-.315-.794-.773" fill="#fff" fill-rule="evenodd"/><path d="M123.471 61.401h-4.183c-.398-.026-.716-.324-.748-.706l.003-21.469c0-.432.361-.774.806-.774l3.895-.001c.408.021.736.329.762.721v2.803h.078c1.016-2.71 2.928-3.976 5.505-3.976 2.616 0 4.257 1.266 5.428 3.976 1.015-2.71 3.318-3.976 5.779-3.976 1.758 0 3.671.724 4.841 2.35 1.327 1.806 1.055 4.427 1.055 6.732l-.003 13.548c0 .43-.362.772-.806.772h-4.179c-.42-.026-.753-.359-.753-.772v-11.379c0-.905.078-3.164-.117-4.022-.313-1.446-1.249-1.852-2.459-1.852-1.016 0-2.071.678-2.499 1.762-.43 1.086-.391 2.89-.391 4.112v11.379c0 .43-.36.772-.806.772h-4.179c-.419-.026-.752-.359-.752-.772l-.003-11.379c0-2.395.39-5.92-2.577-5.92-3.007 0-2.889 3.435-2.889 5.92l-.002 11.379c0 .43-.362.772-.807.772" fill="#fff" fill-rule="evenodd"/><path d="M200.822 42.381c-3.084 0-3.28 4.202-3.28 6.823 0 2.62-.039 8.221 3.241 8.221 3.241 0 3.398-4.516 3.398-7.272 0-1.808-.078-3.975-.625-5.693-.469-1.49-1.407-2.078-2.734-2.078zm-.039-4.382c6.21 0 9.567 5.33 9.567 12.108 0 6.551-3.708 11.748-9.567 11.748-6.091 0-9.41-5.333-9.41-11.973 0-6.687 3.357-11.883 9.41-11.883" fill="#fff" fill-rule="evenodd"/><path d="M218.402 61.401h-4.168c-.419-.026-.75-.359-.75-.772l-.007-21.475c.036-.394.382-.701.803-.701l3.881-.001c.364.019.666.268.743.601v3.284h.078c1.17-2.936 2.812-4.337 5.7-4.337 1.874 0 3.709.679 4.88 2.531 1.095 1.718 1.095 4.607 1.095 6.685v13.509c-.047.382-.388.676-.801.676h-4.193c-.388-.026-.7-.309-.747-.676v-11.656c0-2.349.275-5.783-2.615-5.783-1.016 0-1.954.677-2.421 1.716-.585 1.309-.665 2.62-.665 4.066v11.56c-.007.43-.368.772-.814.772" fill="#fff" fill-rule="evenodd"/><path d="M166.884 61.346c-.278.249-.677.265-.99.099-1.39-1.155-1.639-1.688-2.398-2.787-2.297 2.339-3.924 3.041-6.897 3.041-3.521 0-6.262-2.176-6.262-6.522 0-3.393 1.839-5.704 4.462-6.835 2.27-.996 5.44-1.177 7.867-1.45v-.542c0-.996.076-2.173-.509-3.032-.509-.772-1.487-1.087-2.349-1.087-1.595 0-3.012.817-3.362 2.513-.073.376-.347.748-.726.768l-4.055-.439c-.343-.077-.722-.353-.624-.875.932-4.918 5.373-6.405 9.355-6.405 2.034 0 4.695.543 6.299 2.084 2.036 1.902 1.839 4.437 1.839 7.199v6.518c0 1.959.815 2.82 1.579 3.878.267.379.327.831-.013 1.109-.854.714-2.373 2.035-3.208 2.778l-.008-.01zm-4.217-10.198c0 1.63.039 2.987-.783 4.438-.666 1.177-1.722 1.901-2.897 1.901-1.604 0-2.543-1.223-2.543-3.034 0-3.564 3.195-4.211 6.223-4.211v.905" fill="#fff" fill-rule="evenodd"/><path d="M112.046 61.346c-.276.249-.676.265-.988.099-1.39-1.155-1.639-1.688-2.399-2.787-2.296 2.339-3.922 3.041-6.896 3.041-3.523 0-6.261-2.176-6.261-6.522 0-3.393 1.839-5.704 4.46-6.835 2.27-.996 5.439-1.177 7.866-1.45v-.542c0-.996.078-2.173-.508-3.032-.51-.772-1.488-1.087-2.349-1.087-1.595 0-3.014.817-3.361 2.513-.073.376-.347.748-.727.768l-4.053-.439c-.343-.077-.724-.353-.625-.875.932-4.918 5.373-6.405 9.354-6.405 2.035 0 4.696.543 6.301 2.084 2.034 1.902 1.838 4.437 1.838 7.199v6.518c0 1.959.815 2.82 1.579 3.878.267.379.327.831-.014 1.109-.854.714-2.372 2.035-3.208 2.778l-.009-.01zm-4.217-10.198c0 1.63.039 2.987-.783 4.438-.664 1.177-1.721 1.901-2.896 1.901-1.604 0-2.544-1.223-2.544-3.034 0-3.564 3.197-4.211 6.223-4.211v.905" fill="#fff" fill-rule="evenodd"/><path d="M99.075 23.209h4.302l-2.115-5.918h-.036l-2.151 5.918zm1.262-7.447h1.866l4.959 12.691h-1.866l-1.387-3.822h-5.368l-1.421 3.822h-1.742l4.959-12.691" fill="#fff"/><path d="M110.965 28.453h-1.617l-3.413-9.189h1.688l2.577 7.66h.036l2.506-7.66h1.581l-3.359 9.189" fill="#fff"/><path d="M120.509 23.707c-.587.427-1.724.444-2.737.622-.995.178-1.849.534-1.849 1.653 0 .995.853 1.351 1.778 1.351 1.99 0 2.808-1.245 2.808-2.08v-1.546zm2.453 4.71c-.267.16-.605.249-1.085.249-.782 0-1.279-.427-1.279-1.422-.836.978-1.955 1.422-3.235 1.422-1.671 0-3.04-.747-3.04-2.578 0-2.079 1.547-2.523 3.11-2.825 1.671-.321 3.092-.213 3.092-1.351 0-1.316-1.084-1.529-2.043-1.529-1.28 0-2.222.391-2.293 1.742h-1.511c.089-2.275 1.848-3.075 3.893-3.075 1.653 0 3.447.373 3.447 2.523v4.729c0 .71 0 1.031.48 1.031.125 0 .267-.018.462-.089v1.173" fill="#fff"/><path d="M124.009 19.264h1.511v9.189h-1.511v-9.189zm1.511-1.653h-1.511v-1.848h1.511v1.848" fill="#fff"/><path d="M127.6 28.453h1.511v-12.691h-1.511v12.691z" fill="#fff"/><path d="M136.699 23.707c-.585.427-1.724.444-2.736.622-.995.178-1.849.534-1.849 1.653 0 .995.854 1.351 1.777 1.351 1.991 0 2.808-1.245 2.808-2.08v-1.546zm2.454 4.71c-.267.16-.605.249-1.084.249-.782 0-1.279-.427-1.279-1.422-.835.978-1.956 1.422-3.236 1.422-1.67 0-3.039-.747-3.039-2.578 0-2.079 1.547-2.523 3.111-2.825 1.67-.321 3.092-.213 3.092-1.351 0-1.316-1.085-1.529-2.044-1.529-1.279 0-2.221.391-2.292 1.742h-1.511c.088-2.275 1.849-3.075 3.892-3.075 1.652 0 3.447.373 3.447 2.523v4.729c0 .71 0 1.031.48 1.031.125 0 .267-.018.463-.089v1.173" fill="#fff"/><path d="M144.431 20.383c-2.027 0-2.809 1.742-2.809 3.466 0 1.812.818 3.483 2.897 3.483 2.062 0 2.754-1.76 2.754-3.555 0-1.724-.888-3.395-2.842-3.395zm-4.267-4.621h1.51v4.745h.037c.497-1.013 1.67-1.457 2.933-1.457 2.826 0 4.231 2.24 4.231 4.834 0 2.595-1.387 4.782-4.196 4.782-.942 0-2.292-.356-2.967-1.44h-.037v1.227h-1.51v-12.691" fill="#fff"/><path d="M150.029 28.453h1.51v-12.691h-1.51v12.691z" fill="#fff"/><path d="M159.821 22.978c-.07-1.44-1.154-2.595-2.647-2.595-1.583 0-2.526 1.19-2.632 2.595h5.279zm1.459 2.56c-.41 2.026-1.867 3.128-3.929 3.128-2.933 0-4.319-2.026-4.408-4.835 0-2.755 1.811-4.781 4.319-4.781 3.253 0 4.249 3.039 4.159 5.261h-6.879c-.053 1.6.854 3.022 2.862 3.022 1.244 0 2.115-.605 2.382-1.795h1.494" fill="#fff"/><path d="M173.613 23.707c-.587.427-1.725.444-2.737.622-.996.178-1.849.534-1.849 1.653 0 .995.853 1.351 1.778 1.351 1.99 0 2.808-1.245 2.808-2.08v-1.546zm2.453 4.71c-.266.16-.604.249-1.084.249-.781 0-1.279-.427-1.279-1.422-.835.978-1.955 1.422-3.235 1.422-1.67 0-3.039-.747-3.039-2.578 0-2.079 1.545-2.523 3.11-2.825 1.67-.321 3.094-.213 3.094-1.351 0-1.316-1.085-1.529-2.044-1.529-1.279 0-2.222.391-2.294 1.742h-1.51c.089-2.275 1.847-3.075 3.892-3.075 1.653 0 3.449.373 3.449 2.523v4.729c0 .71 0 1.031.479 1.031.125 0 .267-.018.463-.089v1.173" fill="#fff"/><path d="M179.567 19.264h1.83v1.333h-1.83v5.706c0 .693.194.817 1.137.817h.693v1.333h-1.154c-1.564 0-2.187-.319-2.187-2.009v-5.848h-1.565v-1.333h1.565v-2.756h1.511v2.756" fill="#fff"/></g></g></svg>