<svg xmlns="http://www.w3.org/2000/svg" width="216" height="75" viewBox="0 0 216 75"><path d="M215.707 63.768c0 6.53-4.797 10.591-11.322 10.591h-191.814c-6.528 0-11.821-5.298-11.821-11.828v-49.957c0-6.529 5.293-11.824 11.821-11.824h191.813c6.525 0 11.322 5.295 11.322 11.824v51.194z"/><path fill="#fff" d="M204.385 75.108h-191.814c-6.931 0-12.571-5.642-12.571-12.578v-49.956c0-6.933 5.64-12.574 12.571-12.574h191.813c6.77 0 12.072 5.523 12.072 12.574v51.194c.001 6.783-4.851 11.34-12.071 11.34zm-191.814-73.608c-6.104 0-11.071 4.968-11.071 11.074v49.956c0 6.108 4.967 11.078 11.071 11.078h191.813c6.324 0 10.572-3.955 10.572-9.841v-51.193c0-6.209-4.645-11.074-10.572-11.074h-191.813z"/><g fill="#fff"><path d="M147.652 53.585l-1.615 1.521c-.371.205-.742.443-1.113.612-1.121.509-2.26.638-3.273.638-1.078 0-2.768-.07-4.49-1.316-2.396-1.688-3.443-4.588-3.443-7.114 0-5.231 4.26-7.798 7.732-7.798 1.215 0 2.463.304 3.477.945 1.686 1.113 2.121 2.562 2.363 3.34l-7.934 3.205-2.598.201c.84 4.289 3.742 6.784 6.949 6.784 1.602 0 2.791-.521 3.883-1.062-.002.002.217-.112.062.044zm-4.787-8.533c.645-.234.979-.438.979-.906 0-1.348-1.523-2.904-3.344-2.904-1.35 0-3.879 1.051-3.879 4.695 0 .569.066 1.176.102 1.781l6.142-2.666zM131.064 53.323c0 1.312.234 1.516 1.344 1.617l1.725.166-1.248.743h-5.947c.779-1.012.914-1.112.914-1.786v-.753l-.014-20.063h-2.625l2.527-1.218h4.824c-1.045.605-1.357.975-1.492 2.155l-.008 19.139zM121.842 41.784c.773.637 2.393 1.988 2.393 4.553 0 2.499-1.41 3.677-2.83 4.792-.438.438-.945.915-.945 1.651 0 .746.51 1.15.877 1.453l1.219.94c1.482 1.251 2.832 2.397 2.832 4.728 0 3.176-3.072 6.375-8.877 6.375-4.889 0-7.253-2.328-7.253-4.824 0-1.217.604-2.938 2.601-4.115 2.092-1.279 4.928-1.45 6.444-1.551-.473-.611-1.014-1.252-1.014-2.299 0-.571.172-.912.338-1.314-.369.035-.742.07-1.08.07-3.579 0-5.602-2.67-5.602-5.301 0-1.553.707-3.273 2.161-4.521 1.925-1.584 4.218-1.857 6.041-1.857h6.955l-2.162 1.221h-2.098v-.001zm-2.391 14.981c-.277-.036-.443-.036-.777-.036-.305 0-2.129.066-3.541.54-.747.273-2.906 1.08-2.906 3.479 0 2.392 2.331 4.115 5.939 4.115 3.238 0 4.959-1.553 4.959-3.644-.002-1.722-1.115-2.629-3.674-4.454zm.969-6.412c.781-.777.848-1.854.848-2.466 0-2.427-1.445-6.207-4.252-6.207-.875 0-1.823.438-2.36 1.118-.57.703-.742 1.615-.742 2.492 0 2.26 1.317 6.008 4.217 6.008.846 0 1.756-.411 2.289-.945zM100.919 56.286c-5.364 0-8.234-4.178-8.234-7.959 0-4.418 3.608-8.199 8.74-8.199 4.961 0 8.068 3.884 8.068 7.962.001 3.981-3.071 8.196-8.574 8.196zm4.22-2.729c.816-1.08 1.014-2.428 1.014-3.741 0-2.973-1.416-8.641-5.601-8.641-1.113 0-2.234.436-3.042 1.146-1.318 1.181-1.553 2.664-1.553 4.119 0 3.334 1.647 8.834 5.737 8.834 1.321 0 2.668-.639 3.445-1.717zM82.96 56.286c-5.365 0-8.23-4.178-8.23-7.959 0-4.418 3.609-8.199 8.739-8.199 4.958 0 8.062 3.884 8.062 7.962 0 3.981-3.067 8.196-8.571 8.196zm4.221-2.729c.81-1.08 1.012-2.428 1.012-3.741 0-2.973-1.42-8.641-5.601-8.641-1.117 0-2.226.436-3.036 1.146-1.32 1.181-1.554 2.664-1.554 4.119 0 3.334 1.654 8.834 5.737 8.834 1.318 0 2.663-.639 3.442-1.717zM72.585 55.116l-4.524 1.035c-1.833.289-3.479.543-5.222.543-8.727 0-12.051-6.424-12.051-11.449 0-6.141 4.711-11.832 12.778-11.832 1.707 0 3.35.251 4.846.658 2.371.667 3.479 1.487 4.173 1.969l-2.628 2.496-1.108.248.79-1.26c-1.07-1.045-3.037-2.974-6.77-2.974-4.991 0-8.757 3.794-8.757 9.333 0 5.949 4.3 11.545 11.194 11.545 2.026 0 3.069-.406 4.016-.787v-5.1l-4.776.257 2.532-1.36h6.703l-.819.789c-.222.188-.251.252-.313.504-.033.288-.063 1.204-.063 1.526l-.001 3.859zM157.379 53.729v8.597h-1.707v-21.874h1.707v2.49c1.111-1.608 3.143-2.886 5.504-2.886 4.232 0 7.084 3.211 7.084 8.294 0 5.049-2.852 8.327-7.084 8.327-2.229.002-4.223-1.147-5.504-2.948zm10.754-5.377c0-3.831-1.998-6.753-5.539-6.753-2.199 0-4.301 1.729-5.215 3.235v7.001c.914 1.51 3.016 3.301 5.215 3.301 3.541 0 5.539-2.948 5.539-6.784zM172.297 56.284v-21.87h1.707v21.871h-1.707zM193.158 60.909c.363.162.986.264 1.383.264 1.045 0 1.771-.428 2.424-1.936l1.246-2.82-6.725-15.965h1.902l5.77 13.834 5.713-13.834h1.93l-8.201 19.314c-.85 1.99-2.188 2.947-4.027 2.947-.553 0-1.279-.099-1.707-.229l.292-1.575zM188.172 56.237c-.115-.549-.201-1.031-.264-1.437-.053-.403-.082-.815-.082-1.233-.586.858-1.414 1.573-2.475 2.137-1.059.566-2.064.846-3.447.846-1.662 0-2.953-.409-3.875-1.239-.918-.829-1.381-1.952-1.381-3.372s.67-2.572 2.004-3.453c1.334-.885 3.059-1.324 5.191-1.324h3.982v-1.967c0-1.134-.389-2.023-1.158-2.67-.773-.646-1.859-.975-3.268-.975-1.287 0-2.332.299-3.127.881-.787.594-1.186 1.33-1.186 2.217h-1.746l-.037-.084c-.062-1.195.484-2.246 1.648-3.15 1.156-.905 2.674-1.36 4.541-1.36 1.859 0 3.367.448 4.502 1.342 1.135.886 1.703 2.164 1.703 3.837v7.811c0 .561.025 1.103.098 1.631.072.529.188 1.057.34 1.566h-1.965v-.004zm-6.057-1.244c1.449 0 2.49-.323 3.557-.965 1.059-.638 1.777-1.469 2.156-2.475v-3.04h-4c-1.529 0-2.793.338-3.789 1.021-.996.681-1.502 1.504-1.502 2.461 0 .902.318 1.625.957 2.172.637.553 1.508.826 2.621.826z"/></g><path fill="none" d="M28.498 47.46l5.476-5.477h-.002l-5.474 5.477-17.477-17.475h-.001l17.478 17.478-17.505 17.506 17.505-17.506 5.5 5.5h.003z"/><linearGradient id="a" gradientUnits="userSpaceOnUse" x1="879.429" y1="495.527" x2="856.352" y2="509.97" gradientTransform="matrix(.707 .707 .707 -.707 -947.417 -225.402)"><stop offset="0" stop-color="#D6FFA1"/><stop offset=".326" stop-color="#93E2A7"/><stop offset="1" stop-color="#00A3B5"/></linearGradient><path fill="url(#a)" d="M33.972 41.983l-21.336-11.731c-.604-.331-1.163-.408-1.615-.268l17.478 17.476 5.473-5.477z"/><linearGradient id="b" gradientUnits="userSpaceOnUse" x1="866.01" y1="507.865" x2="895.934" y2="500.043" gradientTransform="matrix(.707 .707 .707 -.707 -947.417 -225.402)"><stop offset="0" stop-color="#FF177B"/><stop offset=".672" stop-color="#FFA976"/><stop offset="1" stop-color="#FFEC73"/></linearGradient><path fill="url(#b)" d="M34.001 52.963l7.283-4.005c1.477-.815 1.477-2.143 0-2.954l-7.311-4.021-5.476 5.477 5.504 5.503z"/><linearGradient id="c" gradientUnits="userSpaceOnUse" x1="882.713" y1="484.574" x2="850.268" y2="503.663" gradientTransform="matrix(.707 .707 .707 -.707 -947.417 -225.402)"><stop offset="0" stop-color="#63FFD4"/><stop offset=".485" stop-color="#32A0BA"/><stop offset=".835" stop-color="#1262A9"/><stop offset="1" stop-color="#064AA2"/></linearGradient><path fill="url(#c)" d="M11.02 29.985c-.649.203-1.069.86-1.069 1.854l.004 31.283c0 .982.407 1.631 1.038 1.847l17.506-17.506-17.479-17.478z"/><linearGradient id="d" gradientUnits="userSpaceOnUse" x1="894.492" y1="499.728" x2="874.515" y2="473.41" gradientTransform="matrix(.707 .707 .707 -.707 -947.417 -225.402)"><stop offset="0" stop-color="#FF4521"/><stop offset=".341" stop-color="#D43E65"/><stop offset=".793" stop-color="#9F36B9"/><stop offset="1" stop-color="#8A33DB"/></linearGradient><path fill="url(#d)" d="M10.993 64.969c.454.153 1.024.082 1.643-.258l21.363-11.748-5.5-5.5-17.506 17.506z"/><g fill="#fff"><path d="M50.746 16.473c0-3.361 2.497-5.522 5.603-5.522 2.081 0 3.441.992 4.29 2.209l-1.521.881c-.576-.801-1.585-1.425-2.77-1.425-2.112 0-3.682 1.601-3.682 3.857 0 2.225 1.569 3.857 3.682 3.857 1.089 0 2.049-.496 2.529-.96v-1.649h-3.201v-1.648h5.058v3.985c-1.04 1.169-2.545 1.953-4.386 1.953-3.105 0-5.602-2.192-5.602-5.538zM63.051 21.803v-10.677h7.314v1.649h-5.442v2.753h5.331v1.648h-5.331v2.978h5.442v1.648l-7.314.001zM75.548 21.803v-9.027h-3.233v-1.649h8.339v1.649h-3.232v9.027h-1.874zM87.163 21.803v-10.677h1.872v10.677h-1.872zM94.251 21.803v-9.027h-3.233v-1.649h8.339v1.649h-3.232v9.027h-1.874zM105.402 16.473c0-3.186 2.257-5.522 5.458-5.522 3.186 0 5.459 2.337 5.459 5.522s-2.274 5.522-5.459 5.522c-3.201 0-5.458-2.337-5.458-5.522zm8.996 0c0-2.209-1.393-3.857-3.537-3.857-2.161 0-3.538 1.648-3.538 3.857 0 2.192 1.377 3.857 3.538 3.857 2.144 0 3.537-1.665 3.537-3.857zM125.949 21.803l-5.57-7.635v7.635h-1.871v-10.677h1.92l5.459 7.396v-7.396h1.873v10.677h-1.811z"/></g></svg>
